<svg xmlns="http://www.w3.org/2000/svg" viewBox="0 0 17.325 17.325"><path fill="#030104" d="M16.444 4.137c-.409-.551-.741-.166-.895-.268-.094-.018-.188-.388-.281-.405-.17-.417-.34-1.169-.51-1.586.36-.106.721-.051.995-.179v-.077c-.713-.376-1.936-.566-2.962-.434C12.431.74 11.632.097 10.939 0a2.37 2.37 0 00-.025.052c.068.051.354.318.421.37v.025C9.727.9 10.211 3.23 10.211 3.23s.905 4.733-.677 4.056c-.799-.341-1.9.001-2.796.426-.027-.012-.06-.021-.086-.031-.259-.108-.691-.481-.982-.48-.292.002-.119.057-.167.117.043.333.413.469.687.657-.507-.096-1.122-.412-1.187-.446s-.074.009-.111.012c-.155.391.314.642.615.858l-.037.024c-.208-.069-.534-.164-.781-.119l-.056.011c-.085.31.332.404.519.575-.087-.027-.216-.062-.298-.022l-.056.023a.27.27 0 00.092.144c-1.542-.272-3.824-.533-4.15.244v.076c.178.256.79.1 1.124.076v.025l-.639.102c.079.395.767.572 1.226.588v.025c-.145.035-.29.068-.435.104v.102c.381.111 1.034.385 1.507.281.834-.186 1.864-.17 2.936-.076l.025.025v.025l.928.338v5.824l-.049.035a.223.223 0 00-.048.314.227.227 0 00.316.049c.106-.078.258-.143.299-.119.028.1.119.164.217.164a.217.217 0 00.062-.01.224.224 0 00.155-.279.442.442 0 00-.499-.334v-5.479l.305.109c.063-.023.18-.033.317-.037v5.803h.021a.223.223 0 00.022.221.227.227 0 00.316.049c.106-.078.258-.143.299-.119a.225.225 0 00.28.154.225.225 0 00.155-.279.442.442 0 00-.282-.314.58.58 0 00-.359.01v-5.523c.219.002.429-.004.56-.039 1.163-.314 2.563-.902 2.572-2.353.337-.084-1.419-5.791-.813-6.707.975.144 1.719-.168 2.63-.127v.024c-.142.211-.28.772-.307 1.101-1.423-.017-1.913 1.461-1.379 2.732.348.824 1.69 1.115 2.81.766.611-.19.374-.314.664-.689-.029-.821.704-.359.856-.813.129-.566-.008-.744-.088-.967z"/></svg>